<mxfile host="app.diagrams.net" modified="2022-05-27T10:27:57.638Z" agent="5.0 (Windows NT 10.0; Win64; x64) AppleWebKit/537.36 (KHTML, like Gecko) Chrome/101.0.4951.67 Safari/537.36" etag="PAPkD0e0lQDdA2NM-PuV" version="18.1.3" type="github">
  <diagram name="Page-1" id="74e2e168-ea6b-b213-b513-2b3c1d86103e">
    <mxGraphModel dx="1597" dy="855" grid="1" gridSize="10" guides="1" tooltips="1" connect="1" arrows="1" fold="1" page="1" pageScale="1" pageWidth="1100" pageHeight="850" background="none" math="0" shadow="0">
      <root>
        <mxCell id="0" />
        <mxCell id="1" parent="0" />
        <mxCell id="77e6c97f196da883-1" value="T" style="swimlane;html=1;childLayout=stackLayout;startSize=20;rounded=0;shadow=0;labelBackgroundColor=none;strokeWidth=1;fontFamily=Verdana;fontSize=8;align=center;" parent="1" vertex="1">
          <mxGeometry x="60" y="70" width="1880" height="1255" as="geometry" />
        </mxCell>
        <mxCell id="77e6c97f196da883-2" value="z" style="swimlane;html=1;startSize=20;" parent="77e6c97f196da883-1" vertex="1">
          <mxGeometry y="20" width="735" height="1235" as="geometry" />
        </mxCell>
        <mxCell id="9BARUu-tl_-qh7yAwLgt-4" value="" style="edgeStyle=orthogonalEdgeStyle;rounded=0;orthogonalLoop=1;jettySize=auto;html=1;" edge="1" parent="77e6c97f196da883-2" source="9BARUu-tl_-qh7yAwLgt-2" target="9BARUu-tl_-qh7yAwLgt-3">
          <mxGeometry relative="1" as="geometry">
            <Array as="points">
              <mxPoint x="111" y="125" />
              <mxPoint x="111" y="125" />
            </Array>
          </mxGeometry>
        </mxCell>
        <mxCell id="9BARUu-tl_-qh7yAwLgt-33" style="edgeStyle=orthogonalEdgeStyle;rounded=0;orthogonalLoop=1;jettySize=auto;html=1;entryX=0.5;entryY=0;entryDx=0;entryDy=0;exitX=1;exitY=0.5;exitDx=0;exitDy=0;verticalAlign=middle;horizontal=0;" edge="1" parent="77e6c97f196da883-2" source="9BARUu-tl_-qh7yAwLgt-2" target="9BARUu-tl_-qh7yAwLgt-26">
          <mxGeometry relative="1" as="geometry" />
        </mxCell>
        <mxCell id="9BARUu-tl_-qh7yAwLgt-2" value="Home Page" style="rounded=1;whiteSpace=wrap;html=1;" vertex="1" parent="77e6c97f196da883-2">
          <mxGeometry x="50" y="50" width="120" height="60" as="geometry" />
        </mxCell>
        <mxCell id="9BARUu-tl_-qh7yAwLgt-11" value="" style="edgeStyle=orthogonalEdgeStyle;rounded=0;orthogonalLoop=1;jettySize=auto;html=1;" edge="1" parent="77e6c97f196da883-2" source="9BARUu-tl_-qh7yAwLgt-3" target="9BARUu-tl_-qh7yAwLgt-10">
          <mxGeometry relative="1" as="geometry" />
        </mxCell>
        <mxCell id="9BARUu-tl_-qh7yAwLgt-18" value="" style="edgeStyle=orthogonalEdgeStyle;rounded=0;orthogonalLoop=1;jettySize=auto;html=1;" edge="1" parent="77e6c97f196da883-2" source="9BARUu-tl_-qh7yAwLgt-3" target="9BARUu-tl_-qh7yAwLgt-10">
          <mxGeometry relative="1" as="geometry" />
        </mxCell>
        <mxCell id="9BARUu-tl_-qh7yAwLgt-3" value="Login Page" style="whiteSpace=wrap;html=1;rounded=1;" vertex="1" parent="77e6c97f196da883-2">
          <mxGeometry x="51" y="160" width="120" height="60" as="geometry" />
        </mxCell>
        <mxCell id="9BARUu-tl_-qh7yAwLgt-15" value="" style="edgeStyle=orthogonalEdgeStyle;rounded=0;orthogonalLoop=1;jettySize=auto;html=1;exitX=0.95;exitY=0.497;exitDx=0;exitDy=0;exitPerimeter=0;entryX=0.046;entryY=0.504;entryDx=0;entryDy=0;entryPerimeter=0;" edge="1" parent="77e6c97f196da883-2" source="9BARUu-tl_-qh7yAwLgt-10" target="9BARUu-tl_-qh7yAwLgt-14">
          <mxGeometry relative="1" as="geometry">
            <Array as="points" />
          </mxGeometry>
        </mxCell>
        <mxCell id="9BARUu-tl_-qh7yAwLgt-89" value="True" style="edgeLabel;html=1;align=center;verticalAlign=middle;resizable=0;points=[];" vertex="1" connectable="0" parent="9BARUu-tl_-qh7yAwLgt-15">
          <mxGeometry x="0.0944" relative="1" as="geometry">
            <mxPoint as="offset" />
          </mxGeometry>
        </mxCell>
        <mxCell id="9BARUu-tl_-qh7yAwLgt-17" value="" style="edgeStyle=orthogonalEdgeStyle;rounded=0;orthogonalLoop=1;jettySize=auto;html=1;exitX=0.504;exitY=0.955;exitDx=0;exitDy=0;exitPerimeter=0;" edge="1" parent="77e6c97f196da883-2" source="9BARUu-tl_-qh7yAwLgt-10" target="9BARUu-tl_-qh7yAwLgt-16">
          <mxGeometry relative="1" as="geometry">
            <Array as="points">
              <mxPoint x="110" y="345" />
              <mxPoint x="110" y="345" />
            </Array>
          </mxGeometry>
        </mxCell>
        <mxCell id="9BARUu-tl_-qh7yAwLgt-91" value="False" style="edgeLabel;html=1;align=center;verticalAlign=middle;resizable=0;points=[];" vertex="1" connectable="0" parent="9BARUu-tl_-qh7yAwLgt-17">
          <mxGeometry x="-0.2485" y="1" relative="1" as="geometry">
            <mxPoint as="offset" />
          </mxGeometry>
        </mxCell>
        <mxCell id="9BARUu-tl_-qh7yAwLgt-10" value="Have account" style="rhombus;whiteSpace=wrap;html=1;rounded=1;" vertex="1" parent="77e6c97f196da883-2">
          <mxGeometry x="70" y="260" width="80" height="80" as="geometry" />
        </mxCell>
        <mxCell id="9BARUu-tl_-qh7yAwLgt-138" style="edgeStyle=entityRelationEdgeStyle;rounded=0;orthogonalLoop=1;jettySize=auto;html=1;exitX=1;exitY=0.5;exitDx=0;exitDy=0;entryX=0;entryY=0.5;entryDx=0;entryDy=0;" edge="1" parent="77e6c97f196da883-2" source="9BARUu-tl_-qh7yAwLgt-14" target="9BARUu-tl_-qh7yAwLgt-37">
          <mxGeometry relative="1" as="geometry">
            <mxPoint x="280" y="300" as="sourcePoint" />
          </mxGeometry>
        </mxCell>
        <mxCell id="9BARUu-tl_-qh7yAwLgt-139" value="True" style="edgeLabel;html=1;align=center;verticalAlign=middle;resizable=0;points=[];" vertex="1" connectable="0" parent="9BARUu-tl_-qh7yAwLgt-138">
          <mxGeometry x="-0.7981" y="2" relative="1" as="geometry">
            <mxPoint x="13" y="2" as="offset" />
          </mxGeometry>
        </mxCell>
        <mxCell id="9BARUu-tl_-qh7yAwLgt-14" value="Login" style="rhombus;whiteSpace=wrap;html=1;rounded=1;" vertex="1" parent="77e6c97f196da883-2">
          <mxGeometry x="210" y="260" width="80" height="80" as="geometry" />
        </mxCell>
        <mxCell id="9BARUu-tl_-qh7yAwLgt-25" style="edgeStyle=orthogonalEdgeStyle;rounded=0;orthogonalLoop=1;jettySize=auto;html=1;entryX=0;entryY=0.5;entryDx=0;entryDy=0;" edge="1" parent="77e6c97f196da883-2" source="9BARUu-tl_-qh7yAwLgt-16" target="9BARUu-tl_-qh7yAwLgt-3">
          <mxGeometry relative="1" as="geometry">
            <mxPoint x="50" y="200" as="targetPoint" />
            <Array as="points">
              <mxPoint x="30" y="400" />
              <mxPoint x="30" y="190" />
            </Array>
          </mxGeometry>
        </mxCell>
        <mxCell id="9BARUu-tl_-qh7yAwLgt-16" value="Register" style="whiteSpace=wrap;html=1;rounded=1;" vertex="1" parent="77e6c97f196da883-2">
          <mxGeometry x="50" y="370" width="120" height="60" as="geometry" />
        </mxCell>
        <mxCell id="9BARUu-tl_-qh7yAwLgt-53" value="" style="rounded=0;orthogonalLoop=1;jettySize=auto;html=1;edgeStyle=orthogonalEdgeStyle;curved=1;" edge="1" parent="77e6c97f196da883-2" source="9BARUu-tl_-qh7yAwLgt-26" target="9BARUu-tl_-qh7yAwLgt-52">
          <mxGeometry relative="1" as="geometry" />
        </mxCell>
        <mxCell id="9BARUu-tl_-qh7yAwLgt-26" value="View List Hostel Page" style="whiteSpace=wrap;html=1;rounded=1;" vertex="1" parent="77e6c97f196da883-2">
          <mxGeometry x="480" y="270" width="70" height="60" as="geometry" />
        </mxCell>
        <mxCell id="9BARUu-tl_-qh7yAwLgt-31" style="edgeStyle=orthogonalEdgeStyle;rounded=0;orthogonalLoop=1;jettySize=auto;html=1;exitX=0.5;exitY=0;exitDx=0;exitDy=0;" edge="1" parent="77e6c97f196da883-2" source="9BARUu-tl_-qh7yAwLgt-14" target="9BARUu-tl_-qh7yAwLgt-3">
          <mxGeometry relative="1" as="geometry">
            <mxPoint x="250" y="190" as="targetPoint" />
            <Array as="points">
              <mxPoint x="250" y="183" />
            </Array>
          </mxGeometry>
        </mxCell>
        <mxCell id="9BARUu-tl_-qh7yAwLgt-82" value="False" style="edgeLabel;html=1;align=center;verticalAlign=middle;resizable=0;points=[];" vertex="1" connectable="0" parent="9BARUu-tl_-qh7yAwLgt-31">
          <mxGeometry x="-0.1816" y="-1" relative="1" as="geometry">
            <mxPoint as="offset" />
          </mxGeometry>
        </mxCell>
        <mxCell id="9BARUu-tl_-qh7yAwLgt-42" value="" style="edgeStyle=orthogonalEdgeStyle;rounded=0;orthogonalLoop=1;jettySize=auto;html=1;" edge="1" parent="77e6c97f196da883-2" source="9BARUu-tl_-qh7yAwLgt-37" target="9BARUu-tl_-qh7yAwLgt-41">
          <mxGeometry relative="1" as="geometry">
            <Array as="points">
              <mxPoint x="380" y="345" />
              <mxPoint x="380" y="345" />
            </Array>
          </mxGeometry>
        </mxCell>
        <mxCell id="9BARUu-tl_-qh7yAwLgt-94" value="True" style="edgeLabel;html=1;align=center;verticalAlign=middle;resizable=0;points=[];" vertex="1" connectable="0" parent="9BARUu-tl_-qh7yAwLgt-42">
          <mxGeometry x="-0.219" y="-1" relative="1" as="geometry">
            <mxPoint as="offset" />
          </mxGeometry>
        </mxCell>
        <mxCell id="9BARUu-tl_-qh7yAwLgt-48" value="" style="edgeStyle=orthogonalEdgeStyle;rounded=0;orthogonalLoop=1;jettySize=auto;html=1;" edge="1" parent="77e6c97f196da883-2" source="9BARUu-tl_-qh7yAwLgt-37">
          <mxGeometry relative="1" as="geometry">
            <mxPoint x="480" y="300" as="targetPoint" />
          </mxGeometry>
        </mxCell>
        <mxCell id="9BARUu-tl_-qh7yAwLgt-93" value="False" style="edgeLabel;html=1;align=center;verticalAlign=middle;resizable=0;points=[];" vertex="1" connectable="0" parent="9BARUu-tl_-qh7yAwLgt-48">
          <mxGeometry x="-0.1746" relative="1" as="geometry">
            <mxPoint as="offset" />
          </mxGeometry>
        </mxCell>
        <mxCell id="9BARUu-tl_-qh7yAwLgt-37" value="User are renting?" style="rhombus;whiteSpace=wrap;html=1;" vertex="1" parent="77e6c97f196da883-2">
          <mxGeometry x="340" y="260" width="80" height="80" as="geometry" />
        </mxCell>
        <mxCell id="9BARUu-tl_-qh7yAwLgt-68" value="" style="edgeStyle=orthogonalEdgeStyle;rounded=0;orthogonalLoop=1;jettySize=auto;html=1;entryX=0.5;entryY=0;entryDx=0;entryDy=0;" edge="1" parent="77e6c97f196da883-2" source="9BARUu-tl_-qh7yAwLgt-41" target="9BARUu-tl_-qh7yAwLgt-72">
          <mxGeometry relative="1" as="geometry">
            <mxPoint x="210" y="485" as="targetPoint" />
            <Array as="points">
              <mxPoint x="260" y="410" />
              <mxPoint x="260" y="435" />
              <mxPoint x="180" y="435" />
            </Array>
          </mxGeometry>
        </mxCell>
        <mxCell id="9BARUu-tl_-qh7yAwLgt-75" value="" style="edgeStyle=orthogonalEdgeStyle;rounded=0;orthogonalLoop=1;jettySize=auto;html=1;" edge="1" parent="77e6c97f196da883-2" source="9BARUu-tl_-qh7yAwLgt-41">
          <mxGeometry relative="1" as="geometry">
            <mxPoint x="350" y="525" as="targetPoint" />
            <Array as="points">
              <mxPoint x="350" y="525" />
            </Array>
          </mxGeometry>
        </mxCell>
        <mxCell id="9BARUu-tl_-qh7yAwLgt-76" style="edgeStyle=orthogonalEdgeStyle;rounded=0;orthogonalLoop=1;jettySize=auto;html=1;exitX=0.25;exitY=1;exitDx=0;exitDy=0;" edge="1" parent="77e6c97f196da883-2" source="9BARUu-tl_-qh7yAwLgt-41" target="9BARUu-tl_-qh7yAwLgt-67">
          <mxGeometry relative="1" as="geometry">
            <Array as="points">
              <mxPoint x="340" y="440" />
              <mxPoint x="340" y="485" />
              <mxPoint x="260" y="485" />
            </Array>
          </mxGeometry>
        </mxCell>
        <mxCell id="9BARUu-tl_-qh7yAwLgt-41" value="Customer Page" style="rounded=1;whiteSpace=wrap;html=1;" vertex="1" parent="77e6c97f196da883-2">
          <mxGeometry x="320" y="380" width="120" height="60" as="geometry" />
        </mxCell>
        <mxCell id="9BARUu-tl_-qh7yAwLgt-43" value="Payment" style="rounded=1;whiteSpace=wrap;html=1;" vertex="1" parent="77e6c97f196da883-2">
          <mxGeometry x="220" y="610" width="80" height="30" as="geometry" />
        </mxCell>
        <mxCell id="9BARUu-tl_-qh7yAwLgt-57" value="" style="edgeStyle=orthogonalEdgeStyle;rounded=0;orthogonalLoop=1;jettySize=auto;html=1;" edge="1" parent="77e6c97f196da883-2" source="9BARUu-tl_-qh7yAwLgt-52" target="9BARUu-tl_-qh7yAwLgt-56">
          <mxGeometry relative="1" as="geometry" />
        </mxCell>
        <mxCell id="9BARUu-tl_-qh7yAwLgt-52" value="View Room Detail" style="whiteSpace=wrap;html=1;rounded=1;" vertex="1" parent="77e6c97f196da883-2">
          <mxGeometry x="480" y="380" width="70" height="60" as="geometry" />
        </mxCell>
        <mxCell id="9BARUu-tl_-qh7yAwLgt-59" value="" style="edgeStyle=orthogonalEdgeStyle;rounded=0;orthogonalLoop=1;jettySize=auto;html=1;entryX=1.006;entryY=0.63;entryDx=0;entryDy=0;entryPerimeter=0;" edge="1" parent="77e6c97f196da883-2" source="9BARUu-tl_-qh7yAwLgt-56" target="9BARUu-tl_-qh7yAwLgt-52">
          <mxGeometry relative="1" as="geometry">
            <mxPoint x="590" y="415" as="targetPoint" />
            <Array as="points">
              <mxPoint x="570" y="550" />
              <mxPoint x="570" y="418" />
            </Array>
          </mxGeometry>
        </mxCell>
        <mxCell id="9BARUu-tl_-qh7yAwLgt-63" value="" style="edgeStyle=orthogonalEdgeStyle;rounded=0;orthogonalLoop=1;jettySize=auto;html=1;" edge="1" parent="77e6c97f196da883-2" source="9BARUu-tl_-qh7yAwLgt-56" target="9BARUu-tl_-qh7yAwLgt-62">
          <mxGeometry relative="1" as="geometry" />
        </mxCell>
        <mxCell id="9BARUu-tl_-qh7yAwLgt-56" value="Is login?" style="rhombus;whiteSpace=wrap;html=1;rounded=1;" vertex="1" parent="77e6c97f196da883-2">
          <mxGeometry x="475" y="510" width="80" height="80" as="geometry" />
        </mxCell>
        <mxCell id="9BARUu-tl_-qh7yAwLgt-62" value="Contract registration" style="whiteSpace=wrap;html=1;rounded=1;" vertex="1" parent="77e6c97f196da883-2">
          <mxGeometry x="455" y="620" width="120" height="60" as="geometry" />
        </mxCell>
        <mxCell id="9BARUu-tl_-qh7yAwLgt-66" value="True" style="text;html=1;align=center;verticalAlign=middle;resizable=0;points=[];autosize=1;strokeColor=none;fillColor=none;" vertex="1" parent="77e6c97f196da883-2">
          <mxGeometry x="520" y="590" width="40" height="20" as="geometry" />
        </mxCell>
        <mxCell id="9BARUu-tl_-qh7yAwLgt-69" value="" style="edgeStyle=orthogonalEdgeStyle;rounded=0;orthogonalLoop=1;jettySize=auto;html=1;" edge="1" parent="77e6c97f196da883-2" source="9BARUu-tl_-qh7yAwLgt-67" target="9BARUu-tl_-qh7yAwLgt-43">
          <mxGeometry relative="1" as="geometry" />
        </mxCell>
        <mxCell id="9BARUu-tl_-qh7yAwLgt-67" value="View Invoice" style="rounded=1;whiteSpace=wrap;html=1;" vertex="1" parent="77e6c97f196da883-2">
          <mxGeometry x="220" y="530" width="80" height="40" as="geometry" />
        </mxCell>
        <mxCell id="9BARUu-tl_-qh7yAwLgt-71" value="View Contract" style="rounded=1;whiteSpace=wrap;html=1;" vertex="1" parent="77e6c97f196da883-2">
          <mxGeometry x="310" y="530" width="80" height="40" as="geometry" />
        </mxCell>
        <mxCell id="9BARUu-tl_-qh7yAwLgt-72" value="Liquidation contract" style="rounded=1;whiteSpace=wrap;html=1;" vertex="1" parent="77e6c97f196da883-2">
          <mxGeometry x="110" y="530" width="80" height="40" as="geometry" />
        </mxCell>
        <mxCell id="77e6c97f196da883-3" value="Hostel Owner" style="swimlane;html=1;startSize=20;" parent="77e6c97f196da883-1" vertex="1">
          <mxGeometry x="735" y="20" width="695" height="1235" as="geometry" />
        </mxCell>
        <mxCell id="9BARUu-tl_-qh7yAwLgt-100" value="Home Page" style="rounded=1;whiteSpace=wrap;html=1;" vertex="1" parent="77e6c97f196da883-3">
          <mxGeometry x="45" y="50" width="120" height="60" as="geometry" />
        </mxCell>
        <mxCell id="9BARUu-tl_-qh7yAwLgt-103" value="Login Page" style="whiteSpace=wrap;html=1;rounded=1;" vertex="1" parent="77e6c97f196da883-3">
          <mxGeometry x="46" y="160" width="120" height="60" as="geometry" />
        </mxCell>
        <mxCell id="9BARUu-tl_-qh7yAwLgt-98" value="" style="edgeStyle=orthogonalEdgeStyle;rounded=0;orthogonalLoop=1;jettySize=auto;html=1;" edge="1" parent="77e6c97f196da883-3" source="9BARUu-tl_-qh7yAwLgt-100" target="9BARUu-tl_-qh7yAwLgt-103">
          <mxGeometry relative="1" as="geometry">
            <Array as="points">
              <mxPoint x="106" y="125" />
              <mxPoint x="106" y="125" />
            </Array>
          </mxGeometry>
        </mxCell>
        <mxCell id="9BARUu-tl_-qh7yAwLgt-108" value="Have account" style="rhombus;whiteSpace=wrap;html=1;rounded=1;" vertex="1" parent="77e6c97f196da883-3">
          <mxGeometry x="65" y="260" width="80" height="80" as="geometry" />
        </mxCell>
        <mxCell id="9BARUu-tl_-qh7yAwLgt-101" value="" style="edgeStyle=orthogonalEdgeStyle;rounded=0;orthogonalLoop=1;jettySize=auto;html=1;" edge="1" parent="77e6c97f196da883-3" source="9BARUu-tl_-qh7yAwLgt-103" target="9BARUu-tl_-qh7yAwLgt-108">
          <mxGeometry relative="1" as="geometry" />
        </mxCell>
        <mxCell id="9BARUu-tl_-qh7yAwLgt-102" value="" style="edgeStyle=orthogonalEdgeStyle;rounded=0;orthogonalLoop=1;jettySize=auto;html=1;" edge="1" parent="77e6c97f196da883-3" source="9BARUu-tl_-qh7yAwLgt-103" target="9BARUu-tl_-qh7yAwLgt-108">
          <mxGeometry relative="1" as="geometry" />
        </mxCell>
        <mxCell id="9BARUu-tl_-qh7yAwLgt-109" value="Login" style="rhombus;whiteSpace=wrap;html=1;rounded=1;" vertex="1" parent="77e6c97f196da883-3">
          <mxGeometry x="205" y="260" width="80" height="80" as="geometry" />
        </mxCell>
        <mxCell id="9BARUu-tl_-qh7yAwLgt-104" value="" style="edgeStyle=orthogonalEdgeStyle;rounded=0;orthogonalLoop=1;jettySize=auto;html=1;exitX=0.95;exitY=0.497;exitDx=0;exitDy=0;exitPerimeter=0;entryX=0.046;entryY=0.504;entryDx=0;entryDy=0;entryPerimeter=0;" edge="1" parent="77e6c97f196da883-3" source="9BARUu-tl_-qh7yAwLgt-108" target="9BARUu-tl_-qh7yAwLgt-109">
          <mxGeometry relative="1" as="geometry">
            <Array as="points" />
          </mxGeometry>
        </mxCell>
        <mxCell id="9BARUu-tl_-qh7yAwLgt-105" value="True" style="edgeLabel;html=1;align=center;verticalAlign=middle;resizable=0;points=[];" vertex="1" connectable="0" parent="9BARUu-tl_-qh7yAwLgt-104">
          <mxGeometry x="0.0944" relative="1" as="geometry">
            <mxPoint as="offset" />
          </mxGeometry>
        </mxCell>
        <mxCell id="9BARUu-tl_-qh7yAwLgt-110" value="Register" style="whiteSpace=wrap;html=1;rounded=1;" vertex="1" parent="77e6c97f196da883-3">
          <mxGeometry x="45" y="370" width="120" height="60" as="geometry" />
        </mxCell>
        <mxCell id="9BARUu-tl_-qh7yAwLgt-106" value="" style="edgeStyle=orthogonalEdgeStyle;rounded=0;orthogonalLoop=1;jettySize=auto;html=1;exitX=0.504;exitY=0.955;exitDx=0;exitDy=0;exitPerimeter=0;" edge="1" parent="77e6c97f196da883-3" source="9BARUu-tl_-qh7yAwLgt-108" target="9BARUu-tl_-qh7yAwLgt-110">
          <mxGeometry relative="1" as="geometry">
            <Array as="points">
              <mxPoint x="105" y="345" />
              <mxPoint x="105" y="345" />
            </Array>
          </mxGeometry>
        </mxCell>
        <mxCell id="9BARUu-tl_-qh7yAwLgt-107" value="False" style="edgeLabel;html=1;align=center;verticalAlign=middle;resizable=0;points=[];" vertex="1" connectable="0" parent="9BARUu-tl_-qh7yAwLgt-106">
          <mxGeometry x="-0.2485" y="1" relative="1" as="geometry">
            <mxPoint as="offset" />
          </mxGeometry>
        </mxCell>
        <mxCell id="9BARUu-tl_-qh7yAwLgt-112" value="View List Hostel Page" style="whiteSpace=wrap;html=1;rounded=1;" vertex="1" parent="77e6c97f196da883-3">
          <mxGeometry x="475" y="270" width="70" height="60" as="geometry" />
        </mxCell>
        <mxCell id="9BARUu-tl_-qh7yAwLgt-99" style="edgeStyle=orthogonalEdgeStyle;rounded=0;orthogonalLoop=1;jettySize=auto;html=1;entryX=0.5;entryY=0;entryDx=0;entryDy=0;exitX=1;exitY=0.5;exitDx=0;exitDy=0;verticalAlign=middle;horizontal=0;" edge="1" parent="77e6c97f196da883-3" source="9BARUu-tl_-qh7yAwLgt-100" target="9BARUu-tl_-qh7yAwLgt-112">
          <mxGeometry relative="1" as="geometry" />
        </mxCell>
        <mxCell id="9BARUu-tl_-qh7yAwLgt-113" value="" style="edgeStyle=orthogonalEdgeStyle;rounded=0;orthogonalLoop=1;jettySize=auto;html=1;exitX=-0.03;exitY=1.14;exitDx=0;exitDy=0;exitPerimeter=0;" edge="1" parent="77e6c97f196da883-3" target="9BARUu-tl_-qh7yAwLgt-120">
          <mxGeometry relative="1" as="geometry">
            <mxPoint x="283.8000000000002" y="302.79999999999995" as="sourcePoint" />
            <Array as="points">
              <mxPoint x="284" y="300" />
              <mxPoint x="345" y="300" />
              <mxPoint x="345" y="325" />
            </Array>
          </mxGeometry>
        </mxCell>
        <mxCell id="9BARUu-tl_-qh7yAwLgt-114" style="edgeStyle=orthogonalEdgeStyle;rounded=0;orthogonalLoop=1;jettySize=auto;html=1;exitX=0.5;exitY=0;exitDx=0;exitDy=0;" edge="1" parent="77e6c97f196da883-3" source="9BARUu-tl_-qh7yAwLgt-109" target="9BARUu-tl_-qh7yAwLgt-103">
          <mxGeometry relative="1" as="geometry">
            <mxPoint x="185" y="110" as="targetPoint" />
            <Array as="points">
              <mxPoint x="245" y="183" />
            </Array>
          </mxGeometry>
        </mxCell>
        <mxCell id="9BARUu-tl_-qh7yAwLgt-115" value="False" style="edgeLabel;html=1;align=center;verticalAlign=middle;resizable=0;points=[];" vertex="1" connectable="0" parent="9BARUu-tl_-qh7yAwLgt-114">
          <mxGeometry x="-0.1816" y="-1" relative="1" as="geometry">
            <mxPoint as="offset" />
          </mxGeometry>
        </mxCell>
        <mxCell id="9BARUu-tl_-qh7yAwLgt-118" value="" style="edgeStyle=orthogonalEdgeStyle;rounded=0;orthogonalLoop=1;jettySize=auto;html=1;" edge="1" parent="77e6c97f196da883-3" source="9BARUu-tl_-qh7yAwLgt-120">
          <mxGeometry relative="1" as="geometry">
            <mxPoint x="475" y="300" as="targetPoint" />
          </mxGeometry>
        </mxCell>
        <mxCell id="9BARUu-tl_-qh7yAwLgt-119" value="False" style="edgeLabel;html=1;align=center;verticalAlign=middle;resizable=0;points=[];" vertex="1" connectable="0" parent="9BARUu-tl_-qh7yAwLgt-118">
          <mxGeometry x="-0.1746" relative="1" as="geometry">
            <mxPoint as="offset" />
          </mxGeometry>
        </mxCell>
        <mxCell id="9BARUu-tl_-qh7yAwLgt-120" value="" style="rhombus;whiteSpace=wrap;html=1;" vertex="1" parent="77e6c97f196da883-3">
          <mxGeometry x="335" y="260" width="80" height="80" as="geometry" />
        </mxCell>
        <mxCell id="9BARUu-tl_-qh7yAwLgt-122" value="" style="edgeStyle=orthogonalEdgeStyle;rounded=0;orthogonalLoop=1;jettySize=auto;html=1;" edge="1" parent="77e6c97f196da883-3" source="9BARUu-tl_-qh7yAwLgt-124">
          <mxGeometry relative="1" as="geometry">
            <mxPoint x="345" y="525" as="targetPoint" />
            <Array as="points">
              <mxPoint x="345" y="525" />
            </Array>
          </mxGeometry>
        </mxCell>
        <mxCell id="9BARUu-tl_-qh7yAwLgt-124" value="Customer Page" style="rounded=1;whiteSpace=wrap;html=1;" vertex="1" parent="77e6c97f196da883-3">
          <mxGeometry x="315" y="380" width="120" height="60" as="geometry" />
        </mxCell>
        <mxCell id="9BARUu-tl_-qh7yAwLgt-116" value="" style="edgeStyle=orthogonalEdgeStyle;rounded=0;orthogonalLoop=1;jettySize=auto;html=1;" edge="1" parent="77e6c97f196da883-3" source="9BARUu-tl_-qh7yAwLgt-120" target="9BARUu-tl_-qh7yAwLgt-124">
          <mxGeometry relative="1" as="geometry">
            <Array as="points">
              <mxPoint x="375" y="345" />
              <mxPoint x="375" y="345" />
            </Array>
          </mxGeometry>
        </mxCell>
        <mxCell id="9BARUu-tl_-qh7yAwLgt-117" value="True" style="edgeLabel;html=1;align=center;verticalAlign=middle;resizable=0;points=[];" vertex="1" connectable="0" parent="9BARUu-tl_-qh7yAwLgt-116">
          <mxGeometry x="-0.219" y="-1" relative="1" as="geometry">
            <mxPoint as="offset" />
          </mxGeometry>
        </mxCell>
        <mxCell id="9BARUu-tl_-qh7yAwLgt-125" value="Payment" style="rounded=1;whiteSpace=wrap;html=1;" vertex="1" parent="77e6c97f196da883-3">
          <mxGeometry x="215" y="610" width="80" height="30" as="geometry" />
        </mxCell>
        <mxCell id="9BARUu-tl_-qh7yAwLgt-127" value="View Room Detail" style="whiteSpace=wrap;html=1;rounded=1;" vertex="1" parent="77e6c97f196da883-3">
          <mxGeometry x="475" y="380" width="70" height="60" as="geometry" />
        </mxCell>
        <mxCell id="9BARUu-tl_-qh7yAwLgt-111" value="" style="rounded=0;orthogonalLoop=1;jettySize=auto;html=1;edgeStyle=orthogonalEdgeStyle;curved=1;" edge="1" parent="77e6c97f196da883-3" source="9BARUu-tl_-qh7yAwLgt-112" target="9BARUu-tl_-qh7yAwLgt-127">
          <mxGeometry relative="1" as="geometry" />
        </mxCell>
        <mxCell id="9BARUu-tl_-qh7yAwLgt-128" value="" style="edgeStyle=orthogonalEdgeStyle;rounded=0;orthogonalLoop=1;jettySize=auto;html=1;entryX=1.006;entryY=0.63;entryDx=0;entryDy=0;entryPerimeter=0;" edge="1" parent="77e6c97f196da883-3" source="9BARUu-tl_-qh7yAwLgt-130" target="9BARUu-tl_-qh7yAwLgt-127">
          <mxGeometry relative="1" as="geometry">
            <mxPoint x="525" y="335" as="targetPoint" />
            <Array as="points">
              <mxPoint x="565" y="550" />
              <mxPoint x="565" y="418" />
            </Array>
          </mxGeometry>
        </mxCell>
        <mxCell id="9BARUu-tl_-qh7yAwLgt-130" value="Is login?" style="rhombus;whiteSpace=wrap;html=1;rounded=1;" vertex="1" parent="77e6c97f196da883-3">
          <mxGeometry x="470" y="510" width="80" height="80" as="geometry" />
        </mxCell>
        <mxCell id="9BARUu-tl_-qh7yAwLgt-126" value="" style="edgeStyle=orthogonalEdgeStyle;rounded=0;orthogonalLoop=1;jettySize=auto;html=1;" edge="1" parent="77e6c97f196da883-3" source="9BARUu-tl_-qh7yAwLgt-127" target="9BARUu-tl_-qh7yAwLgt-130">
          <mxGeometry relative="1" as="geometry" />
        </mxCell>
        <mxCell id="9BARUu-tl_-qh7yAwLgt-131" value="Contract registration" style="whiteSpace=wrap;html=1;rounded=1;" vertex="1" parent="77e6c97f196da883-3">
          <mxGeometry x="450" y="620" width="120" height="60" as="geometry" />
        </mxCell>
        <mxCell id="9BARUu-tl_-qh7yAwLgt-129" value="" style="edgeStyle=orthogonalEdgeStyle;rounded=0;orthogonalLoop=1;jettySize=auto;html=1;" edge="1" parent="77e6c97f196da883-3" source="9BARUu-tl_-qh7yAwLgt-130" target="9BARUu-tl_-qh7yAwLgt-131">
          <mxGeometry relative="1" as="geometry" />
        </mxCell>
        <mxCell id="9BARUu-tl_-qh7yAwLgt-132" value="True" style="text;html=1;align=center;verticalAlign=middle;resizable=0;points=[];autosize=1;strokeColor=none;fillColor=none;" vertex="1" parent="77e6c97f196da883-3">
          <mxGeometry x="515" y="590" width="40" height="20" as="geometry" />
        </mxCell>
        <mxCell id="9BARUu-tl_-qh7yAwLgt-133" value="" style="edgeStyle=orthogonalEdgeStyle;rounded=0;orthogonalLoop=1;jettySize=auto;html=1;" edge="1" parent="77e6c97f196da883-3" source="9BARUu-tl_-qh7yAwLgt-134" target="9BARUu-tl_-qh7yAwLgt-125">
          <mxGeometry relative="1" as="geometry" />
        </mxCell>
        <mxCell id="9BARUu-tl_-qh7yAwLgt-134" value="View Invoice" style="rounded=1;whiteSpace=wrap;html=1;" vertex="1" parent="77e6c97f196da883-3">
          <mxGeometry x="215" y="530" width="80" height="40" as="geometry" />
        </mxCell>
        <mxCell id="9BARUu-tl_-qh7yAwLgt-123" style="edgeStyle=orthogonalEdgeStyle;rounded=0;orthogonalLoop=1;jettySize=auto;html=1;exitX=0.25;exitY=1;exitDx=0;exitDy=0;" edge="1" parent="77e6c97f196da883-3" source="9BARUu-tl_-qh7yAwLgt-124" target="9BARUu-tl_-qh7yAwLgt-134">
          <mxGeometry relative="1" as="geometry">
            <Array as="points">
              <mxPoint x="335" y="440" />
              <mxPoint x="335" y="485" />
              <mxPoint x="255" y="485" />
            </Array>
          </mxGeometry>
        </mxCell>
        <mxCell id="9BARUu-tl_-qh7yAwLgt-135" value="View Contract" style="rounded=1;whiteSpace=wrap;html=1;" vertex="1" parent="77e6c97f196da883-3">
          <mxGeometry x="305" y="530" width="80" height="40" as="geometry" />
        </mxCell>
        <mxCell id="9BARUu-tl_-qh7yAwLgt-136" value="Liquidation contract" style="rounded=1;whiteSpace=wrap;html=1;" vertex="1" parent="77e6c97f196da883-3">
          <mxGeometry x="105" y="530" width="80" height="40" as="geometry" />
        </mxCell>
        <mxCell id="9BARUu-tl_-qh7yAwLgt-121" value="" style="edgeStyle=orthogonalEdgeStyle;rounded=0;orthogonalLoop=1;jettySize=auto;html=1;entryX=0.5;entryY=0;entryDx=0;entryDy=0;" edge="1" parent="77e6c97f196da883-3" source="9BARUu-tl_-qh7yAwLgt-124" target="9BARUu-tl_-qh7yAwLgt-136">
          <mxGeometry relative="1" as="geometry">
            <mxPoint x="145" y="405" as="targetPoint" />
            <Array as="points">
              <mxPoint x="255" y="410" />
              <mxPoint x="255" y="435" />
              <mxPoint x="175" y="435" />
            </Array>
          </mxGeometry>
        </mxCell>
        <mxCell id="9BARUu-tl_-qh7yAwLgt-137" value="False" style="text;html=1;align=center;verticalAlign=middle;resizable=0;points=[];autosize=1;strokeColor=none;fillColor=none;" vertex="1" parent="77e6c97f196da883-3">
          <mxGeometry x="575" y="510" width="40" height="20" as="geometry" />
        </mxCell>
        <mxCell id="77e6c97f196da883-4" value="System" style="swimlane;html=1;startSize=20;" parent="77e6c97f196da883-1" vertex="1">
          <mxGeometry x="1430" y="20" width="450" height="1235" as="geometry" />
        </mxCell>
        <mxCell id="9BARUu-tl_-qh7yAwLgt-77" value="False" style="text;html=1;align=center;verticalAlign=middle;resizable=0;points=[];autosize=1;strokeColor=none;fillColor=none;" vertex="1" parent="1">
          <mxGeometry x="640" y="590" width="40" height="20" as="geometry" />
        </mxCell>
      </root>
    </mxGraphModel>
  </diagram>
</mxfile>
